<svg viewBox="0 0 120 40" fill="none" xmlns="http://www.w3.org/2000/svg">
  <rect width="120" height="40" rx="8" fill="#27AE60"/>
  <path d="M20 20c0-4.4 3.6-8 8-8 2.4 0 4.5 1.1 6 2.8l-2.8 2.8c-.8-1-2-1.6-3.2-1.6-2.2 0-4 1.8-4 4s1.8 4 4 4c1.2 0 2.4-.6 3.2-1.6l2.8 2.8c-1.5 1.7-3.6 2.8-6 2.8-4.4 0-8-3.6-8-8z" fill="white"/>
  <path d="M38 12h4v16h-4V12z" fill="white"/>
  <path d="M46 12h4v16h-4V12z" fill="white"/>
  <path d="M54 20c0-4.4 3.6-8 8-8 2.4 0 4.5 1.1 6 2.8l-2.8 2.8c-.8-1-2-1.6-3.2-1.6-2.2 0-4 1.8-4 4s1.8 4 4 4c1.2 0 2.4-.6 3.2-1.6l2.8 2.8c-1.5 1.7-3.6 2.8-6 2.8-4.4 0-8-3.6-8-8z" fill="white"/>
  <path d="M72 12h4v6l6-6h5l-7 7 7 9h-5l-5-6.5-1 1V28h-4V12z" fill="white"/>
</svg>
