<svg viewBox="0 0 120 40" fill="none" xmlns="http://www.w3.org/2000/svg">
  <rect width="120" height="40" rx="8" fill="#00CCCC"/>
  <path d="M18 12h8c3.3 0 6 2.7 6 6s-2.7 6-6 6h-4v4h-4V12zm4 8h4c1.1 0 2-.9 2-2s-.9-2-2-2h-4v4z" fill="white"/>
  <path d="M36 12h4v16h-4V12z" fill="white"/>
  <path d="M44 20c0-4.4 3.6-8 8-8s8 3.6 8 8v8h-4v-8c0-2.2-1.8-4-4-4s-4 1.8-4 4v8h-4v-8z" fill="white"/>
  <path d="M64 20c0-4.4 3.6-8 8-8s8 3.6 8 8-3.6 8-8 8-8-3.6-8-8zm4 0c0 2.2 1.8 4 4 4s4-1.8 4-4-1.8-4-4-4-4 1.8-4 4z" fill="white"/>
  <path d="M84 12h12v4h-8v4h6v4h-6v4h8v4H84V12z" fill="white"/>
  <path d="M100 12h4v16h-4V12z" fill="white"/>
</svg>
